<svg width="146" height="28" viewBox="0 0 146 28" fill="none" xmlns="http://www.w3.org/2000/svg">
<g clip-path="url(#clip0_1235_500)">
<path d="M75.747 20.1958C75.2591 20.1958 74.8826 20.0182 74.6059 19.6707C74.3331 19.3231 74.1987 18.8018 74.1987 18.099C74.1987 17.3615 74.3639 16.7822 74.6905 16.3575C75.017 15.9327 75.4819 15.5852 76.0697 15.3264C76.6614 15.0639 77.3414 14.8167 78.1098 14.5889V19.076C77.7179 19.4428 77.353 19.7131 77.0264 19.8792C76.623 20.0877 76.1965 20.1881 75.7432 20.1881H75.747V20.1958ZM81.5138 18.0488V12.411C81.5138 10.8857 81.1027 9.76969 80.2729 9.07075C79.443 8.37181 78.1905 8.02428 76.5 8.02428C75.4473 8.02428 74.5368 8.17488 73.753 8.47608C72.9731 8.78114 72.3737 9.16729 71.9511 9.6384C71.5247 10.1095 71.3172 10.627 71.3172 11.1946C71.3172 11.7622 71.4824 12.1832 71.809 12.4689C72.1355 12.7508 72.4813 12.8937 72.8348 12.8937C73.2843 12.8937 73.6685 12.7624 73.9912 12.4998C74.3101 12.2372 74.4676 11.8202 74.4676 11.2525C74.4676 10.4455 74.5713 9.89326 74.775 9.59592C74.9824 9.30631 75.4127 9.15957 76.0736 9.15957C76.8074 9.15957 77.3261 9.36809 77.6373 9.78128C77.9485 10.1945 78.1021 11.017 78.1021 12.2449V13.5501C77.595 13.7007 77.0187 13.8591 76.3694 14.029C75.7201 14.1989 75.0631 14.4035 74.3985 14.6507C73.73 14.8978 73.1191 15.199 72.5658 15.5543C72.0126 15.9095 71.5669 16.3575 71.225 16.8865C70.8907 17.4155 70.7178 18.0681 70.7178 18.8366C70.7178 19.8946 71.029 20.6978 71.6591 21.2423C72.2892 21.7907 73.1268 22.061 74.1756 22.061C74.8134 22.061 75.3436 21.9837 75.7662 21.8331C76.1888 21.6825 76.5846 21.4663 76.9649 21.1805C77.3376 20.8986 77.7448 20.5665 78.1751 20.192H78.3173V21.7984H81.8212C81.8212 21.7984 81.4946 18.1067 81.4985 18.045H81.5061L81.5138 18.0488Z" fill="#1B1B1B"/>
<path d="M107.155 19.4197C106.61 20.2576 105.926 20.6785 105.1 20.6785C104.67 20.6785 104.289 20.5897 103.974 20.4121C103.655 20.2306 103.382 20.0182 103.16 19.7595C102.933 19.5008 102.749 19.2845 102.595 19.0953V11.936C102.879 11.6155 103.256 11.2834 103.736 10.9475C104.212 10.6115 104.773 10.4377 105.411 10.4377C106.233 10.4377 106.867 10.8084 107.309 11.5576C107.751 12.3029 107.97 13.5115 107.97 15.1913C107.97 17.1723 107.697 18.5817 107.151 19.4197H107.155ZM111.113 10.8857C110.728 9.94346 110.194 9.22907 109.507 8.75024C108.819 8.27141 108.02 8.02814 107.098 8.02814C106.176 8.02814 105.407 8.24052 104.731 8.66529C104.055 9.09006 103.359 9.67701 102.649 10.4339H102.533V7.97794L97.2122 8.9047L99.1832 10.681V28.0039H104.447L102.587 26.0422V21.3273H102.672C103.102 21.613 103.548 21.8061 104.013 21.9219C104.474 22.0378 104.965 22.0919 105.488 22.0919C106.633 22.0919 107.674 21.7829 108.611 21.1728C109.549 20.5588 110.298 19.6784 110.851 18.5277C111.405 17.3769 111.681 16.0022 111.681 14.3997C111.681 13.0057 111.485 11.8356 111.105 10.8895H111.113V10.8857Z" fill="#1B1B1B"/>
<path d="M92.2138 19.4197C91.6683 20.2576 90.9844 20.6785 90.1584 20.6785C89.7281 20.6785 89.3477 20.5897 89.0327 20.4121C88.7138 20.2306 88.441 20.0182 88.2182 19.7595C87.9915 19.5008 87.8071 19.2845 87.6534 19.0953V11.936C87.9377 11.6155 88.3142 11.2834 88.7944 10.9475C89.2709 10.6115 89.8318 10.4377 90.4696 10.4377C91.2917 10.4377 91.9257 10.8084 92.3675 11.5576C92.8093 12.3029 93.0283 13.5115 93.0283 15.1913C93.0283 17.1723 92.7555 18.5817 92.21 19.4197H92.2138ZM96.1711 10.8857C95.7869 9.94346 95.2528 9.22907 94.5651 8.75024C93.8774 8.27141 93.0783 8.02814 92.1562 8.02814C91.2341 8.02814 90.4657 8.24052 89.7895 8.66529C89.1133 9.09006 88.4179 9.67701 87.7072 10.4339H87.5919V7.97794L82.2708 8.9047L84.2417 10.681V28.0039H89.5052L87.6457 26.0422V21.3273H87.7302C88.1605 21.613 88.6062 21.8061 89.0711 21.9219C89.5321 22.0378 90.0239 22.0919 90.5464 22.0919C91.6913 22.0919 92.7325 21.7829 93.6699 21.1728C94.6074 20.5588 95.3566 19.6784 95.9098 18.5277C96.4631 17.3769 96.7397 16.0022 96.7397 14.3997C96.7397 13.0057 96.5437 11.8356 96.1634 10.8895H96.1711V10.8857Z" fill="#1B1B1B"/>
<path d="M142.609 3.40587C142.367 2.19335 141.848 1.02331 141.042 0C140.231 1.01945 139.716 2.18949 139.474 3.40587C138.268 3.64915 137.104 4.17046 136.085 4.98138C137.1 5.79617 138.264 6.31361 139.474 6.55689C139.716 7.76941 140.235 8.93946 141.042 9.96276C141.852 8.94332 142.367 7.77327 142.609 6.55689C143.816 6.31361 144.98 5.7923 145.998 4.98138C144.983 4.1666 143.819 3.64915 142.609 3.40587Z" fill="#1B1B1B"/>
<path d="M26.7578 18.7787C26.2853 19.103 25.8473 19.354 25.4516 19.5355C25.0558 19.717 24.5602 19.8058 23.9762 19.8058C23.0503 19.8058 22.3511 19.3926 21.89 18.5624C21.429 17.7322 21.1946 16.3961 21.1946 14.5503C21.1946 12.801 21.4597 11.5112 21.9899 10.681C22.5201 9.85465 23.2309 9.4376 24.1184 9.4376C24.9329 9.4376 25.5476 9.66543 25.9625 10.1211C26.3775 10.5768 26.6426 11.0826 26.7578 11.6348V18.7709V18.7787ZM30.1964 18.6358V1.97711L24.8138 2.45208L26.7578 4.56434V8.61123H26.6733C26.22 8.3834 25.7628 8.21735 25.3094 8.11309C24.856 8.00883 24.3988 7.95477 23.9455 7.95477C22.7545 7.95477 21.6672 8.22894 20.6952 8.78114C19.7231 9.33334 18.9394 10.1674 18.3516 11.2796C17.7637 12.3917 17.4717 13.7973 17.4717 15.4886C17.4717 16.705 17.6523 17.8094 18.0096 18.798C18.3708 19.7865 18.9125 20.5781 19.6425 21.1689C20.3724 21.7598 21.2676 22.0532 22.328 22.0532C23.2731 22.0532 24.1107 21.8409 24.8407 21.4122C25.5707 20.9836 26.2007 20.5318 26.7309 20.0568H26.8462V21.7984H30.3616L30.1964 18.6281V18.6358Z" fill="#1B1B1B"/>
<path d="M45.2262 18.2071V7.97794L39.4056 8.55717L41.7915 10.82V18.2033C41.2421 18.6589 40.7503 19.0103 40.3162 19.2613C39.882 19.5085 39.3326 19.6321 38.668 19.6321C38.253 19.6321 37.8727 19.551 37.5307 19.3888C37.1888 19.2266 36.9314 18.9099 36.7508 18.4311C36.5702 17.9561 36.4819 17.2495 36.4819 16.3189V7.97408L31.0877 8.55331L33.0471 10.905V16.9753C33.0471 18.8984 33.3814 20.2306 34.0537 20.972C34.7261 21.7134 35.7327 22.0841 37.0774 22.0841C37.7036 22.0841 38.2607 21.9992 38.7525 21.8254C39.2443 21.6555 39.7322 21.3813 40.2163 21.0106C40.7004 20.6399 41.2229 20.1572 41.7915 19.5703H41.9336V21.7984H45.3991L45.2339 18.2033H45.2301L45.2262 18.2071Z" fill="#1B1B1B"/>
<path d="M68.5894 19.7016V13.2142C68.5894 11.3877 68.2206 10.0554 67.4829 9.21749C66.7453 8.37954 65.7425 7.96249 64.4708 7.96249C63.5987 7.96249 62.7842 8.19419 62.0273 8.66143C61.2704 9.12868 60.5212 9.73108 59.7836 10.4725H59.6529C59.4147 9.81989 59.069 9.27542 58.6079 8.84679C57.974 8.25597 57.1057 7.96249 56.0107 7.96249C55.0272 7.96249 54.1935 8.20963 53.5096 8.70391C52.8296 9.19819 52.1457 9.76197 51.4657 10.3875H51.3235V7.9818L46.0408 8.87768L47.9733 10.6849V18.7246C47.9733 18.9756 47.9656 19.2034 47.9464 19.4042V21.8061H53.1907L51.4119 19.7016V11.8472C51.6232 11.6387 51.8537 11.4379 52.0919 11.2564C52.4338 10.9977 52.7988 10.7853 53.1869 10.6154C53.5749 10.4455 53.986 10.3566 54.424 10.3566C55.0848 10.3566 55.6112 10.5845 55.9992 11.0401C56.3873 11.4958 56.5832 12.3724 56.5832 13.666V18.574C56.5832 18.9447 56.564 19.2536 56.5371 19.5201V21.7984H61.839L60.0218 19.6938V12.577C60.0218 12.3492 60.0064 12.1214 59.9795 11.8935C59.9795 11.8781 59.9757 11.8665 59.9757 11.8511C60.3407 11.5035 60.7441 11.1753 61.2013 10.8818C61.7584 10.5304 62.3423 10.3528 62.9494 10.3528C63.4027 10.3528 63.7985 10.4532 64.1289 10.654C64.4593 10.8548 64.7167 11.1946 64.8973 11.6812C65.0778 12.1677 65.1662 12.8473 65.1662 13.7239V18.5779C65.1662 18.8984 65.1508 19.1764 65.1239 19.4197V21.8022H70.4105L68.6009 19.6977L68.5894 19.7016Z" fill="#1B1B1B"/>
<path d="M119.089 9.1866C119.657 9.1866 120.107 9.35651 120.437 9.70019C120.767 10.0439 121.013 10.515 121.175 11.1135C121.336 11.712 121.417 12.384 121.417 13.1254H116.472C116.534 11.9437 116.722 11.0286 117.045 10.3837C117.44 9.58434 118.124 9.1866 119.089 9.1866ZM124.682 17.3499C124.379 17.7322 124.045 18.072 123.676 18.3771C123.307 18.6821 122.873 18.9254 122.37 19.103C121.866 19.2807 121.24 19.3733 120.479 19.3733C119.665 19.3733 118.954 19.1918 118.351 18.8327C117.744 18.4697 117.275 17.9021 116.945 17.1182C116.645 16.4077 116.484 15.4925 116.457 14.3765H125.224C125.186 12.2836 124.648 10.6887 123.607 9.59593C122.566 8.50311 121.194 7.95477 119.488 7.95477C118.312 7.95477 117.229 8.2135 116.238 8.72708C115.247 9.24066 114.455 10.0207 113.867 11.0672C113.279 12.1136 112.987 13.4536 112.987 15.0909C112.987 16.593 113.245 17.8673 113.756 18.9177C114.267 19.9642 114.993 20.7596 115.927 21.3002C116.864 21.8409 117.986 22.115 119.292 22.115C120.218 22.115 121.01 21.9915 121.663 21.7443C122.316 21.4972 122.861 21.1728 123.295 20.7751C123.73 20.3773 124.114 19.9178 124.444 19.4042C124.775 18.8906 125.082 18.3578 125.366 17.8056L124.686 17.3499H124.682Z" fill="#1B1B1B"/>
<path d="M13.161 20.0761C12.5348 20.1804 10.7751 20.2344 9.77238 20.2344H6.3069V12.8705H9.14613C10.0567 12.8705 10.7329 12.9246 11.1785 13.0288L13.4376 15.4963V8.90084L11.1785 11.2989C10.7329 11.4147 10.0567 11.4688 9.14613 11.4688H6.3069V4.64929H12.6577L15.762 8.04744L15.593 3.05061H0.00219727L2.69927 6.28658V18.296C2.69927 18.5354 2.69159 18.74 2.67238 18.9331V21.8061H15.8773L16.615 16.2957L13.161 20.0761Z" fill="#1B1B1B"/>
<path d="M135.866 8.53014C135.54 8.16329 135.044 7.97794 134.391 7.97794C133.846 7.97794 133.392 8.09764 133.027 8.32934C132.662 8.56875 132.309 8.91629 131.971 9.37581C131.636 9.8392 131.21 10.4068 130.703 11.0903H130.618V7.97794L125.186 8.87381L127.268 10.681V21.7868H132.505L130.687 19.6977L130.68 12.5886C130.999 12.1368 131.333 11.7468 131.679 11.4147C132.024 11.0865 132.359 10.9204 132.678 10.9204C132.808 10.9204 132.966 11.017 133.154 11.2023C133.342 11.3915 133.569 11.573 133.846 11.7545C134.115 11.936 134.441 12.0248 134.818 12.0248C135.209 12.0248 135.571 11.8665 135.886 11.5576C136.205 11.2487 136.362 10.7351 136.362 10.0168C136.362 9.39512 136.197 8.89698 135.87 8.534L135.866 8.53014Z" fill="#1B1B1B"/>
</g>
<defs>
<clipPath id="clip0_1235_500">
<rect width="146" height="28" fill="white"/>
</clipPath>
</defs>
</svg>
